<?xml version="1.0" standalone="no"?>
<!DOCTYPE svg PUBLIC "-//W3C//DTD SVG 20010904//EN"
 "http://www.w3.org/TR/2001/REC-SVG-20010904/DTD/svg10.dtd">
<svg version="1.0" xmlns="http://www.w3.org/2000/svg"
 width="1536.000000pt" height="1536.000000pt" viewBox="0 0 1536.000000 1536.000000"
 preserveAspectRatio="xMidYMid meet">

<g transform="translate(0.000000,1536.000000) scale(0.100000,-0.100000)"
fill="#000000" stroke="none">
<path d="M7605 13896 c-253 -50 -468 -169 -627 -347 -191 -216 -287 -463 -288
-745 -1 -410 230 -795 592 -984 156 -82 281 -117 453 -127 338 -20 648 106
881 357 442 476 374 1248 -144 1641 -93 70 -270 155 -387 186 -123 32 -365 41
-480 19z m409 -221 c94 -26 229 -88 298 -137 85 -61 215 -199 261 -278 153
-264 167 -565 38 -835 -94 -197 -226 -333 -418 -429 -127 -64 -207 -81 -388
-81 -191 0 -251 13 -400 85 -122 60 -193 115 -285 222 -87 102 -151 225 -187
355 -23 82 -27 119 -27 228 0 91 5 148 16 192 100 367 343 605 698 684 102 23
300 20 394 -6z"/>
<path d="M11790 12075 c-126 -26 -263 -105 -345 -198 -51 -59 -121 -186 -133
-243 -10 -49 -22 -51 -51 -9 -34 50 -118 136 -170 173 -58 42 -108 43 -151 5
-20 -18 -33 -41 -37 -67 -6 -37 -5 -39 85 -125 100 -95 160 -180 191 -273 20
-59 27 -108 16 -108 -3 0 -27 11 -53 24 -58 29 -135 46 -210 46 -242 -1 -469
-195 -539 -461 -21 -83 -21 -274 1 -392 28 -147 89 -301 174 -440 21 -35 32
-61 26 -67 -5 -5 -101 -56 -213 -115 -165 -85 -207 -103 -217 -93 -6 7 -27 42
-45 78 -18 36 -51 99 -74 140 -23 41 -95 172 -160 290 -280 512 -394 690 -519
815 -109 109 -193 169 -323 234 -142 72 -254 107 -447 141 -38 6 -331 10 -802
10 -827 0 -855 -2 -1078 -67 -279 -81 -478 -212 -663 -439 -90 -111 -630 -913
-639 -951 -9 -36 15 -83 51 -100 35 -17 87 -12 117 11 10 7 121 165 248 352
303 446 357 519 470 637 138 144 238 207 433 272 205 68 178 66 987 72 796 6
876 3 1025 -44 244 -77 443 -218 579 -413 29 -41 105 -163 168 -270 109 -186
150 -260 338 -610 161 -299 205 -374 233 -394 55 -40 80 -32 397 133 290 151
295 153 320 136 14 -9 59 -33 100 -53 65 -32 85 -37 165 -40 75 -3 100 0 150
18 127 47 123 47 226 10 52 -18 98 -36 103 -41 10 -8 -39 -82 -81 -121 -15
-14 -82 -61 -148 -104 -227 -147 -540 -347 -685 -437 -80 -49 -167 -104 -195
-122 -252 -162 -297 -180 -434 -173 -71 3 -98 10 -153 36 -82 40 -110 71 -235
267 -152 237 -566 855 -612 912 -30 39 -49 54 -75 58 -46 9 -87 -12 -109 -55
-16 -31 -17 -62 -15 -287 l3 -253 26 -25 c46 -46 130 -43 163 7 9 13 19 47 23
76 5 34 12 49 19 44 12 -8 318 -471 424 -642 154 -248 319 -354 555 -354 115
-1 181 13 280 59 137 62 1203 745 1314 841 60 52 114 139 146 234 l26 79 83
55 c255 170 441 581 423 939 -9 190 -67 330 -186 447 -168 165 -403 205 -603
104 -26 -13 -50 -24 -52 -24 -8 0 -26 72 -26 103 l0 27 95 0 c162 0 337 71
437 176 107 115 166 250 175 406 l6 87 -36 36 -35 35 -93 -1 c-52 0 -123 -7
-159 -14z m100 -219 c0 -39 -68 -162 -111 -201 -55 -50 -155 -95 -225 -102
-56 -6 -56 -6 -49 18 25 85 100 192 165 235 48 32 155 73 193 73 22 1 27 -3
27 -23z m-770 -814 c90 -39 116 -47 185 -50 84 -4 108 2 275 74 134 57 255 30
357 -80 97 -104 129 -207 120 -380 -12 -229 -102 -449 -252 -614 -102 -113
-195 -137 -337 -87 -117 41 -158 42 -267 6 -124 -41 -188 -41 -258 -1 -98 56
-229 236 -292 400 -54 138 -76 357 -50 482 32 152 153 278 289 301 54 10 129
-7 230 -51z"/>
<path d="M6566 10049 c-14 -11 -50 -53 -79 -92 -235 -317 -336 -455 -346 -474
-17 -34 -13 -88 9 -116 12 -15 85 -57 173 -100 776 -379 1029 -502 1326 -643
192 -92 363 -180 387 -199 101 -83 133 -230 75 -350 -53 -111 -144 -169 -261
-169 -57 0 -77 6 -160 46 -161 78 -385 185 -630 303 -129 62 -318 153 -421
203 l-185 89 -48 117 c-162 390 -468 754 -816 969 -314 193 -697 287 -1058
258 -167 -13 -251 -30 -407 -82 -270 -90 -488 -224 -704 -433 -297 -288 -519
-708 -606 -1146 -22 -112 -31 -176 -54 -384 l-6 -60 -71 -12 c-81 -13 -120
-31 -175 -81 -108 -98 -127 -271 -44 -403 29 -46 102 -98 159 -115 l41 -12 31
-134 c17 -74 52 -210 78 -304 26 -93 76 -278 112 -410 99 -366 172 -496 385
-690 l77 -70 -444 -5 -444 -5 -32 -33 -33 -32 -3 -373 c-3 -339 -2 -375 14
-405 33 -61 37 -62 424 -62 l350 0 0 -1314 0 -1313 23 -34 c45 -67 109 -74
163 -18 l29 30 2 742 c2 408 3 785 3 838 l0 97 267 248 c147 137 299 278 338
314 39 36 155 143 258 238 l187 172 1037 -2 1038 -3 5 -1135 c6 -1268 -1
-1165 79 -1300 71 -119 205 -222 341 -261 25 -7 88 -13 140 -13 197 -1 369 90
468 247 73 116 86 179 102 502 5 121 15 299 20 395 30 527 51 891 61 1100 6
129 15 241 19 249 10 19 12 -5 90 -1399 5 -96 14 -275 20 -396 6 -127 17 -245
25 -278 74 -283 334 -460 613 -417 137 21 233 71 334 173 70 70 133 194 148
288 6 41 10 473 10 1158 l0 1092 955 0 954 0 158 -146 c87 -81 326 -302 531
-491 l372 -345 0 -833 0 -833 26 -31 c47 -56 126 -50 164 11 20 33 20 51 20
1351 l0 1317 350 0 c385 0 395 1 425 60 22 42 22 747 0 789 -26 52 -71 61
-295 61 l-200 0 0 304 c0 238 3 306 13 314 7 6 112 52 233 102 227 94 264 118
264 167 0 15 -45 124 -99 242 -128 279 -242 529 -426 931 -152 335 -180 380
-231 380 -14 0 -64 -19 -112 -41 -48 -23 -147 -70 -221 -105 l-133 -64 -930 0
c-998 0 -971 1 -998 -49 -18 -34 -12 -80 15 -106 l24 -25 914 0 c720 0 917 -3
924 -12 5 -7 33 -71 62 -143 100 -244 196 -473 387 -923 41 -96 74 -177 74
-182 0 -12 -39 -20 -100 -20 -94 0 -95 2 -108 87 -39 246 -249 405 -463 348
-92 -24 -89 -25 -111 35 -27 70 -62 125 -106 167 -43 41 -87 44 -126 8 -39
-36 -35 -79 14 -148 22 -30 40 -57 40 -59 0 -2 -51 -3 -112 -3 -109 0 -115 -1
-176 -34 -119 -65 -200 -189 -210 -323 -5 -75 -7 -76 -89 -69 -41 3 -43 5 -43
35 0 48 -27 144 -57 198 -35 65 -120 143 -189 175 -69 31 -182 35 -253 9 -25
-9 -48 -13 -52 -9 -3 5 -14 31 -23 59 -23 69 -68 136 -114 168 -44 30 -62 32
-101 11 -58 -30 -57 -87 4 -162 48 -58 56 -79 28 -68 -48 18 -122 25 -173 15
-75 -14 -131 -44 -195 -102 -68 -62 -110 -145 -127 -253 l-13 -80 -48 -3 c-59
-4 -77 9 -77 57 0 21 -7 62 -16 92 -63 213 -257 334 -456 284 -71 -17 -88 -15
-88 14 0 35 -61 140 -105 180 -54 50 -98 55 -135 16 -36 -39 -31 -79 20 -152
24 -35 41 -65 38 -68 -3 -3 -18 0 -34 6 -16 6 -64 12 -107 12 -68 0 -86 -4
-145 -34 -142 -72 -231 -209 -232 -356 0 -27 -5 -43 -12 -44 -12 -1 -100 -1
-160 1 -16 0 -28 4 -28 10 0 5 37 96 81 202 45 106 124 294 176 418 52 124
104 249 115 277 10 29 24 55 29 59 6 3 32 -15 60 -41 63 -59 157 -103 234
-111 35 -3 97 1 150 9 75 13 96 13 125 2 19 -7 67 -25 105 -40 62 -24 81 -26
161 -23 82 3 100 8 170 42 190 94 384 365 456 636 27 105 35 293 15 387 -36
167 -122 283 -263 354 l-87 44 -111 0 c-61 0 -128 -4 -148 -9 -46 -10 -47 -4
-11 72 19 39 56 86 120 149 87 86 93 95 93 133 0 71 -67 116 -132 89 -18 -7
-65 -44 -104 -81 l-71 -68 -22 68 c-12 37 -36 88 -53 115 -66 104 -201 192
-336 218 -56 12 -64 11 -79 -4 -27 -27 -29 -138 -4 -237 45 -178 141 -277 319
-326 34 -9 62 -21 62 -25 0 -11 -31 -89 -35 -89 -2 0 -35 15 -75 34 -145 70
-271 69 -422 -1 l-77 -36 -77 53 c-41 29 -182 103 -312 165 -130 62 -365 174
-522 250 -157 76 -349 168 -427 206 l-143 69 0 340 c0 366 -2 379 -52 414 -32
23 -90 20 -122 -5z m-1763 -390 c185 -16 411 -84 567 -171 453 -252 795 -710
931 -1246 17 -68 29 -125 26 -128 -3 -3 -23 6 -45 20 -69 44 -127 56 -267 59
l-130 2 -90 53 c-166 97 -271 107 -404 37 -39 -21 -73 -36 -74 -34 -65 98 -96
126 -182 165 -72 33 -138 39 -254 24 l-97 -13 -91 51 c-132 72 -176 87 -258
86 -112 -1 -224 -62 -291 -160 l-36 -52 -116 -4 -117 -4 -113 -53 c-108 -50
-117 -53 -170 -47 -185 21 -209 20 -287 -9 -97 -35 -163 -93 -206 -181 -29
-57 -33 -78 -37 -170 -5 -101 -5 -104 -28 -104 -21 0 -24 5 -26 43 -5 106 19
308 53 442 67 264 190 522 349 734 320 425 739 651 1240 670 19 0 88 -4 153
-10z m1727 -133 c0 -58 -4 -107 -10 -111 -10 -6 -105 38 -114 53 -9 15 96 162
116 162 4 0 8 -47 8 -104z m2176 -1147 c155 -78 190 -83 330 -43 54 15 123 27
153 27 66 0 141 -30 188 -75 40 -39 82 -132 96 -214 42 -245 -163 -660 -376
-763 -72 -35 -126 -32 -227 13 -108 48 -165 54 -279 31 -86 -18 -91 -18 -137
0 -93 35 -187 163 -242 331 -36 106 -36 115 -1 154 46 53 88 116 110 164 30
69 42 185 28 269 -19 113 -18 118 19 140 48 28 89 37 156 32 48 -3 81 -15 182
-66z m-4145 -69 c134 -85 135 -85 319 -85 186 0 199 -4 245 -74 49 -73 43
-176 -16 -308 l-28 -63 -301 0 c-232 0 -301 3 -304 13 -2 6 -10 48 -19 92 -20
106 -47 176 -107 274 -28 45 -50 86 -50 90 0 16 43 63 74 82 53 32 112 25 187
-21z m2594 -335 c77 -37 210 -101 295 -141 85 -41 156 -78 158 -83 2 -5 -72
-172 -164 -372 -91 -200 -210 -461 -264 -580 -54 -119 -110 -239 -125 -268
-29 -59 -34 -100 -15 -135 15 -29 14 -28 265 -130 110 -45 206 -85 213 -89 9
-6 12 -81 12 -318 l0 -309 -395 0 -395 0 0 718 c1 661 2 724 20 807 15 77 22
93 47 110 52 37 110 102 134 151 20 40 24 64 24 134 0 73 -4 93 -27 136 -34
65 -76 107 -145 146 l-53 30 0 187 c0 103 3 190 6 194 5 5 76 -27 409 -188z
m-3090 146 c81 -37 136 -117 170 -246 18 -72 19 -92 3 -96 -7 -2 -227 -2 -488
1 l-475 5 -3 65 c-6 130 71 207 193 196 33 -3 90 -9 126 -12 77 -8 132 6 265
66 100 44 147 49 209 21z m1612 -46 c26 -16 77 -44 113 -64 l65 -36 140 0
c150 0 177 -7 221 -57 32 -35 44 -63 44 -102 l0 -36 -465 0 c-526 0 -477 -10
-451 87 36 134 104 225 180 241 52 10 92 2 153 -33z m6565 -455 c97 -219 251
-552 390 -850 66 -140 120 -262 121 -270 2 -14 -49 -38 -261 -120 l-72 -28
-19 36 c-50 98 -521 1224 -521 1245 0 13 266 148 284 143 4 -1 40 -71 78 -156z
m-4214 -7 c18 -54 32 -104 32 -111 0 -16 -52 -142 -243 -592 -94 -223 -142
-337 -188 -450 -38 -94 -38 -95 -71 -94 -49 2 -308 113 -308 132 0 9 60 149
134 311 271 597 383 847 390 868 7 20 15 23 94 26 48 1 96 4 107 5 17 2 25
-13 53 -95z m-1311 -69 c35 -26 51 -83 35 -119 -27 -59 96 -55 -2071 -53
l-1990 3 -28 21 c-58 44 -51 123 15 155 30 15 196 17 2022 15 l1989 -1 28 -21z
m-3373 -392 c7 -11 46 -308 46 -349 l0 -33 -204 0 c-187 0 -205 2 -210 18 -16
49 -86 339 -86 354 0 17 15 18 224 18 124 0 227 -4 230 -8z m730 -9 c2 -10 6
-97 8 -193 l3 -175 -234 -3 c-137 -1 -239 2 -244 7 -9 9 -46 291 -47 354 l0
27 254 0 c234 0 255 -1 260 -17z m1123 -125 c-4 -79 -10 -167 -13 -195 l-7
-53 -438 0 c-344 0 -439 3 -439 13 0 6 -5 90 -10 186 -5 96 -7 178 -4 183 3 4
210 8 461 8 l456 0 -6 -142z m713 121 c0 -35 -40 -351 -46 -360 -3 -5 -111 -9
-241 -9 l-236 0 6 83 c4 45 10 133 13 195 l7 112 248 0 c245 0 249 0 249 -21z
m650 14 c0 -5 -9 -48 -20 -98 -10 -49 -29 -134 -40 -187 l-22 -98 -204 0
c-114 0 -204 4 -204 9 0 5 9 69 19 143 11 73 23 157 26 186 l7 52 219 0 c120
0 219 -3 219 -7z m1925 -604 c69 -27 89 -31 145 -26 36 3 93 17 127 31 88 37
147 35 202 -5 50 -36 89 -111 93 -179 l3 -45 -430 -1 c-236 -1 -438 1 -448 4
-16 4 -18 11 -13 46 9 52 41 124 69 155 55 59 135 65 252 20z m1385 1 c54 -20
100 -30 137 -30 37 0 78 9 130 30 87 35 139 38 192 10 49 -24 76 -58 94 -118
26 -82 28 -110 9 -115 -27 -7 -870 -3 -877 5 -3 3 -1 34 6 67 21 108 95 180
186 181 23 0 78 -13 123 -30z m1398 -4 c97 -34 151 -33 254 4 106 39 150 39
212 0 51 -33 88 -97 101 -176 5 -35 3 -42 -12 -46 -25 -7 -822 -8 -855 -1 -24
5 -28 10 -28 42 0 43 38 128 71 158 64 59 134 64 257 19z m-7853 6 c8 -5 85
-353 85 -384 0 -5 -79 -8 -175 -8 -158 0 -175 2 -184 18 -18 33 -102 361 -96
372 7 12 354 14 370 2z m679 0 c5 -8 28 -188 41 -324 l7 -68 -211 0 -210 0
-10 38 c-6 20 -22 91 -36 157 -14 66 -28 127 -32 135 -6 15 -6 35 2 58 3 9 57
12 224 12 121 0 222 -4 225 -8z m1064 -4 c7 -9 3 -70 -14 -198 -13 -102 -24
-186 -24 -188 0 -1 -172 -1 -382 0 l-383 3 -7 40 c-15 90 -39 335 -33 345 10
16 829 14 843 -2z m669 -5 c6 -16 -47 -306 -66 -356 l-11 -27 -207 2 -208 3 2
30 c2 45 34 338 39 353 2 9 56 12 224 12 196 0 221 -2 227 -17z m599 4 c5 -13
-58 -253 -89 -342 l-14 -40 -168 -3 c-93 -1 -172 1 -176 5 -4 5 6 71 22 148
16 77 29 149 28 160 -1 11 1 28 5 38 3 9 8 24 11 32 6 21 373 23 381 2z m5854
-702 l0 -295 -2280 0 -2280 0 0 295 0 295 2280 0 2280 0 0 -295z m-5750 -35
l0 -260 -197 0 -198 0 106 103 c118 114 191 217 239 338 18 43 36 79 41 79 5
0 9 -115 9 -260z m-2929 35 c20 -55 50 -128 67 -162 18 -34 32 -67 32 -73 0
-19 -177 81 -258 146 -73 58 -172 165 -172 185 0 6 63 8 147 7 l148 -3 36
-100z m579 48 c9 -46 48 -192 87 -325 5 -17 -5 -18 -123 -18 l-128 0 -47 49
c-26 27 -65 80 -88 119 -46 78 -102 212 -95 224 3 4 90 8 194 8 l189 0 11 -57z
m910 40 c0 -24 -53 -221 -82 -308 l-24 -70 -229 -5 c-127 -3 -235 -4 -242 -2
-29 8 -144 366 -127 394 3 5 162 8 355 8 326 0 349 -1 349 -17z m604 9 c16
-26 -111 -255 -187 -338 l-49 -54 -125 0 c-125 0 -125 0 -120 23 2 12 21 85
41 162 20 77 36 148 36 158 0 10 5 27 10 38 10 18 23 19 200 19 104 0 191 -4
194 -8z m526 -2 c0 -21 -186 -202 -248 -241 -77 -49 -182 -100 -192 -94 -4 3
12 44 36 91 24 48 53 116 65 153 36 110 19 101 189 101 90 0 150 -4 150 -10z
m6531 -722 c2 -257 0 -348 -5 -357 -5 -7 -118 -9 -333 -5 -355 5 -376 3 -418
-47 l-25 -31 0 -404 c0 -281 -3 -404 -11 -404 -11 0 -67 51 -513 463 -346 320
-427 392 -454 406 -17 9 -782 12 -3310 13 -2982 1 -3290 0 -3317 -15 -17 -9
-142 -120 -280 -247 -600 -556 -676 -624 -686 -609 -5 8 -9 187 -9 402 1 378
0 389 -20 423 -34 54 -61 57 -431 51 l-326 -6 -7 67 c-8 86 -8 292 0 360 l7
52 5068 0 5069 0 1 -112z m-5209 -653 c-1 -38 -9 -212 -17 -385 -8 -173 -20
-412 -25 -530 -6 -118 -17 -325 -25 -460 -8 -135 -19 -351 -25 -480 -6 -129
-15 -256 -20 -282 -21 -107 -90 -203 -181 -253 -75 -41 -197 -47 -283 -15 -79
30 -165 115 -197 196 l-24 59 -3 1113 -2 1112 402 -2 403 -3 -3 -70z m1238
-1032 c0 -709 -4 -1121 -10 -1144 -20 -71 -83 -153 -152 -196 -186 -118 -402
-51 -495 154 -24 53 -27 73 -44 387 -10 182 -27 495 -39 696 -11 201 -29 523
-40 715 -11 193 -22 380 -24 416 -3 37 -2 70 1 73 4 3 186 6 405 6 l398 0 0
-1107z m-1016 922 c-4 -8 -8 -15 -10 -15 -2 0 -4 7 -4 15 0 8 4 15 10 15 5 0
7 -7 4 -15z"/>
<path d="M4386 9155 c-3 -9 -6 -56 -6 -104 0 -155 43 -265 138 -352 54 -49
177 -117 221 -121 22 -3 26 2 33 42 5 25 7 86 6 136 -3 82 -8 100 -41 167 -45
92 -107 150 -211 201 -93 46 -131 54 -140 31z"/>
<path d="M5198 8944 c-167 -40 -309 -177 -342 -331 -7 -30 -5 -34 21 -44 16
-6 72 -9 133 -7 96 3 112 6 173 36 115 57 212 175 239 291 10 44 9 54 -3 62
-21 13 -156 9 -221 -7z"/>
<path d="M3953 8926 c-85 -32 -153 -77 -217 -147 -76 -82 -99 -145 -100 -272
0 -57 5 -102 11 -108 8 -8 27 -6 68 6 155 45 260 130 310 251 24 58 29 87 33
182 l4 112 -23 -1 c-13 0 -52 -10 -86 -23z"/>
<path d="M5593 8904 c-4 -16 -8 -85 -8 -154 0 -122 1 -127 33 -192 23 -46 51
-84 92 -121 57 -51 172 -117 205 -117 22 0 30 43 30 175 0 113 -2 124 -31 186
-19 39 -52 85 -83 116 -57 56 -158 121 -202 130 -24 5 -29 1 -36 -23z"/>
<path d="M9806 7469 c-40 -47 -34 -77 30 -153 19 -22 32 -42 29 -44 -2 -3 -53
-5 -112 -6 -96 -1 -113 -4 -158 -28 -58 -30 -134 -107 -163 -164 -27 -55 -45
-138 -37 -174 10 -44 42 -70 85 -70 57 0 82 32 104 132 8 34 59 94 97 114 42
21 98 17 175 -12 93 -36 176 -36 261 0 143 60 254 9 278 -129 10 -51 30 -91
50 -99 38 -14 86 -6 112 20 23 24 25 31 21 88 -13 161 -138 298 -298 327 -59
10 -78 10 -139 -5 -39 -10 -75 -15 -80 -12 -5 3 -12 21 -15 40 -8 43 -73 143
-115 179 -46 38 -91 37 -125 -4z"/>
<path d="M11064 7476 c-42 -36 -38 -79 14 -146 22 -30 38 -58 34 -62 -4 -3
-31 -2 -60 2 -183 30 -359 -101 -401 -298 -16 -74 -15 -80 18 -113 54 -53 141
-32 157 39 17 78 38 123 69 151 57 50 120 53 230 10 84 -32 162 -31 242 4 150
65 241 19 287 -145 19 -66 43 -88 98 -88 125 0 111 194 -24 336 -57 60 -116
92 -200 105 -56 9 -84 7 -190 -17 -24 -5 -28 -2 -34 22 -9 39 -40 100 -78 152
-52 74 -112 91 -162 48z"/>
<path d="M9733 3948 c-20 -10 -161 -224 -325 -492 l-48 -79 0 -689 c0 -738 0
-731 49 -758 13 -7 370 -10 1075 -10 l1056 0 32 29 33 29 3 685 c2 552 0 693
-11 724 -12 35 -87 157 -272 440 -38 60 -81 114 -95 120 -34 17 -1463 17
-1497 1z m467 -183 c0 -9 -9 -69 -20 -133 -11 -64 -23 -132 -26 -149 l-5 -33
-264 0 c-146 0 -265 2 -265 5 0 10 184 310 194 317 6 4 95 8 199 8 162 0 187
-2 187 -15z m384 -12 c6 -30 46 -288 46 -297 0 -7 -285 -8 -291 -2 -3 4 43
300 50 324 1 1 43 2 95 2 l94 0 6 -27z m667 -136 c55 -87 99 -160 99 -162 0
-9 -529 -5 -534 3 -4 7 -56 298 -56 316 0 4 88 5 196 4 l196 -3 99 -158z
m-1106 -594 c0 -239 0 -242 23 -266 43 -46 64 -44 193 19 l119 57 124 -57
c136 -62 160 -64 196 -19 19 24 20 41 20 269 l0 244 299 0 c276 0 299 -1 303
-17 3 -15 3 -761 -1 -1055 l-1 -98 -940 0 -940 0 -2 581 c-2 319 -1 583 1 585
3 2 140 3 305 2 l301 -3 0 -242z m498 96 c-1 -83 -4 -153 -6 -155 -2 -3 -38
12 -80 32 l-75 35 -70 -30 c-39 -17 -75 -31 -81 -31 -7 0 -11 49 -11 150 l0
150 163 0 162 0 -2 -151z"/>
</g>
</svg>
