<?xml version="1.0" standalone="no"?>
<!DOCTYPE svg PUBLIC "-//W3C//DTD SVG 20010904//EN"
 "http://www.w3.org/TR/2001/REC-SVG-20010904/DTD/svg10.dtd">
<svg version="1.0" xmlns="http://www.w3.org/2000/svg"
 width="1536.000000pt" height="1536.000000pt" viewBox="0 0 1536.000000 1536.000000"
 preserveAspectRatio="xMidYMid meet">

<g transform="translate(0.000000,1536.000000) scale(0.100000,-0.100000)"
fill="#000000" stroke="none">
<path d="M7650 13904 c-84 -15 -214 -51 -272 -75 -398 -164 -662 -533 -684
-959 -31 -572 363 -1067 927 -1166 119 -21 317 -14 435 15 217 53 376 145 539
310 202 205 315 483 315 776 0 426 -240 808 -624 995 -153 75 -267 101 -456
105 -85 2 -166 1 -180 -1z m330 -223 c172 -39 309 -112 434 -231 132 -126 212
-258 257 -425 30 -108 33 -326 5 -430 -24 -95 -105 -262 -160 -334 -132 -171
-324 -294 -528 -336 -101 -22 -283 -19 -393 5 -107 24 -244 88 -337 159 -80
60 -184 179 -239 271 -47 80 -93 219 -110 330 -57 393 183 800 557 944 49 19
121 41 159 49 100 22 252 21 355 -2z"/>
<path d="M11830 12075 c-151 -28 -237 -69 -344 -164 -57 -52 -129 -167 -156
-250 -12 -39 -26 -71 -31 -71 -4 0 -34 32 -66 70 -60 73 -152 153 -197 170
-64 24 -136 -28 -136 -100 0 -44 12 -59 96 -129 36 -29 83 -82 112 -124 63
-95 113 -237 83 -237 -5 0 -40 12 -77 26 -195 74 -394 25 -555 -135 -114 -114
-173 -246 -185 -419 -16 -210 58 -478 196 -712 29 -49 30 -54 14 -64 -49 -31
-389 -206 -403 -208 -11 -2 -31 25 -66 92 -207 390 -503 913 -597 1053 -198
295 -515 491 -893 552 -78 12 -217 15 -802 15 -755 0 -866 -5 -1033 -46 -327
-81 -557 -227 -766 -484 -158 -195 -559 -795 -718 -1072 -15 -27 -30 -48 -34
-48 -4 0 -39 11 -78 24 -196 67 -434 95 -649 78 -439 -36 -801 -202 -1124
-516 -303 -295 -519 -710 -610 -1171 -25 -123 -50 -329 -51 -406 0 -12 -14
-18 -61 -23 -76 -7 -134 -33 -189 -82 -170 -154 -109 -452 105 -515 49 -15 47
-11 76 -134 11 -49 68 -263 195 -730 82 -299 133 -413 251 -555 44 -52 110
-120 147 -150 l68 -55 -444 -5 c-423 -5 -444 -6 -470 -25 -15 -11 -31 -30 -37
-43 -14 -30 -15 -740 -1 -776 5 -14 24 -35 42 -46 31 -19 51 -20 385 -20 l353
0 2 -1325 3 -1325 32 -32 c58 -57 136 -40 169 38 10 25 12 188 8 845 l-6 814
74 70 c40 39 185 174 323 300 137 127 343 317 457 423 l208 192 1038 -2 1037
-3 5 -1135 5 -1135 22 -58 c49 -127 149 -249 256 -311 125 -72 304 -92 442
-49 133 42 261 145 322 260 55 102 62 150 83 543 11 201 24 442 30 535 6 94
19 337 30 540 18 335 36 575 44 583 9 9 18 -139 76 -1208 21 -410 44 -776 50
-815 17 -112 83 -237 166 -315 219 -204 558 -196 773 19 83 83 125 154 151
255 19 77 20 109 20 1188 l0 1108 955 0 955 0 163 -152 c89 -84 239 -223 332
-308 93 -85 258 -237 367 -338 l198 -183 0 -834 0 -835 29 -32 c25 -28 36 -33
75 -33 36 0 51 6 73 28 l28 27 3 1330 2 1329 366 3 366 3 29 33 29 32 0 375
c0 398 -1 410 -49 442 -23 16 -65 18 -415 23 l-390 5 65 52 c131 107 225 241
299 428 32 80 118 411 169 650 17 77 46 208 66 290 19 83 37 160 40 172 3 15
23 32 53 47 51 26 110 85 136 134 40 78 36 210 -9 288 -59 101 -139 150 -258
160 l-77 7 -6 36 c-21 131 -67 232 -141 311 -99 107 -222 157 -363 147 -41 -3
-99 -14 -129 -26 -30 -11 -56 -19 -59 -17 -2 2 -10 33 -18 67 -20 88 -92 231
-155 308 -64 78 -157 141 -209 141 -27 0 -43 -7 -62 -27 -56 -59 -42 -125 38
-183 25 -18 63 -54 84 -82 57 -71 119 -208 95 -208 -2 0 -30 7 -62 15 -159 42
-323 -5 -437 -125 -81 -84 -146 -228 -146 -322 l0 -38 -472 -1 c-260 0 -715
-1 -1011 -1 -296 0 -540 1 -542 4 -3 3 -4 391 -3 864 l3 859 200 -303 c110
-166 227 -345 260 -398 102 -162 216 -254 371 -300 72 -22 235 -25 314 -5 88
21 220 91 427 223 106 68 260 166 343 218 238 150 610 399 664 444 64 53 118
138 151 237 26 78 28 80 93 123 265 172 457 586 439 946 -10 193 -66 330 -181
445 -174 172 -380 210 -609 113 -28 -12 -52 -17 -57 -12 -5 5 -12 33 -16 62
l-7 52 101 0 c177 0 327 58 439 168 103 102 162 222 184 375 22 149 -8 191
-139 194 -42 1 -111 -4 -152 -12z m77 -224 c-29 -144 -187 -282 -340 -298 -70
-7 -71 -3 -22 95 49 97 120 161 217 195 66 24 96 32 137 36 10 1 12 -7 8 -28z
m-3325 -636 c309 -41 585 -211 755 -465 80 -119 276 -457 396 -680 325 -607
318 -596 391 -594 36 1 96 28 335 152 161 84 294 152 296 152 2 0 32 -18 67
-39 128 -80 255 -91 417 -35 l84 28 96 -33 c53 -19 100 -37 105 -41 10 -9 -39
-83 -81 -121 -15 -15 -113 -82 -218 -149 -104 -68 -251 -162 -325 -210 -74
-48 -214 -136 -310 -195 -96 -60 -213 -133 -260 -162 -47 -30 -114 -68 -150
-86 -60 -29 -73 -32 -165 -32 -81 0 -112 4 -163 24 -98 37 -122 66 -318 369
-127 198 -523 783 -560 829 -58 71 -139 67 -176 -7 -17 -33 -18 -106 -18
-1087 0 -579 -3 -1053 -7 -1054 -5 -1 -33 -2 -65 -4 -168 -8 -291 -122 -305
-284 -5 -47 -1 -74 18 -127 34 -97 91 -151 200 -193 20 -7 28 -19 33 -48 4
-21 34 -148 67 -282 l59 -244 0 -523 0 -524 -425 0 -425 0 0 23 c0 12 -5 78
-10 146 -5 68 -17 239 -25 380 -24 405 -35 544 -47 574 -22 58 -106 74 -157
31 -41 -34 -48 -68 -55 -274 -8 -216 -34 -733 -42 -817 l-6 -63 -424 0 -424 0
0 718 c1 656 2 725 19 812 13 66 24 98 36 105 61 35 102 77 134 135 33 60 36
72 35 145 0 61 -5 92 -23 132 -26 58 -96 130 -160 162 l-41 21 0 1098 c0 1072
-1 1098 -20 1129 -21 34 -66 53 -110 45 -30 -6 -95 -72 -175 -177 -33 -44
-113 -147 -179 -230 -65 -82 -148 -193 -184 -245 -36 -52 -67 -97 -69 -99 -2
-3 -32 23 -66 56 -100 98 -214 189 -334 266 -62 40 -112 78 -113 86 0 33 311
519 537 836 273 384 403 501 664 596 220 80 280 85 1204 87 452 1 604 -2 687
-13z m2548 -176 c91 -42 99 -44 190 -44 91 0 99 2 195 44 86 39 112 45 182 49
71 3 89 1 137 -21 102 -47 185 -160 216 -296 17 -72 7 -250 -19 -357 -52 -213
-215 -456 -344 -514 -61 -28 -129 -25 -227 10 -110 39 -165 39 -270 0 -134
-49 -218 -37 -310 46 -170 154 -289 438 -290 689 0 162 37 263 129 356 73 73
119 90 231 85 75 -3 96 -8 180 -47z m-6195 -1398 c127 -24 215 -50 215 -62 0
-5 -15 -40 -34 -77 -91 -182 -177 -446 -215 -662 -11 -63 -29 -141 -40 -173
-11 -31 -28 -96 -37 -143 -10 -48 -23 -88 -30 -91 -8 -3 -42 11 -77 31 -169
94 -220 109 -327 95 -102 -14 -195 -73 -251 -159 l-31 -48 -97 0 c-103 1 -161
-15 -281 -78 -49 -25 -63 -28 -130 -25 -209 10 -262 6 -321 -21 -146 -67 -219
-189 -219 -366 0 -81 -1 -83 -22 -80 -22 3 -23 8 -26 107 -7 245 95 604 250
885 282 510 756 840 1278 890 89 8 297 -4 395 -23z m1593 -645 c1 -385 -1
-625 -7 -622 -5 4 -19 37 -32 74 -64 196 -164 404 -276 577 -55 83 -64 103
-57 123 14 36 348 482 359 478 6 -2 11 -223 13 -630z m-1135 478 c164 -85 403
-293 539 -470 163 -212 305 -507 372 -772 36 -139 36 -139 -26 -98 -75 50
-142 64 -265 58 l-103 -5 -87 51 c-184 106 -296 118 -434 48 -40 -21 -75 -33
-77 -28 -1 5 -16 27 -33 50 -43 59 -138 119 -211 134 -33 7 -62 18 -65 24 -2
6 4 29 14 50 16 35 23 39 83 54 76 18 145 56 207 113 55 50 116 171 117 230
l1 42 -55 6 c-50 6 -118 0 -194 -17 -28 -6 -29 -6 -22 29 15 83 82 270 139
389 33 70 62 128 64 128 2 0 18 -7 36 -16z m-809 -1178 c50 -30 110 -60 133
-66 24 -6 106 -9 192 -8 l149 3 32 -30 c87 -81 92 -189 17 -357 -21 -47 -30
-57 -54 -60 -15 -2 -151 -1 -302 2 l-275 5 -13 80 c-22 134 -66 236 -148 350
-13 18 -13 25 3 55 24 49 75 80 130 80 37 0 62 -10 136 -54z m-506 -182 c59
-29 102 -82 133 -164 24 -64 44 -158 36 -166 -7 -8 -956 -6 -968 2 -5 3 -9 34
-9 70 0 107 48 173 138 190 18 4 76 1 128 -7 118 -16 162 -8 305 55 122 54
163 57 237 20z m1650 -67 c53 -31 115 -60 137 -66 22 -6 95 -10 161 -8 118 2
121 2 158 -27 49 -37 76 -82 76 -127 0 -27 -5 -38 -17 -40 -10 -2 -220 -3
-466 -1 l-448 2 6 33 c31 141 80 237 139 273 74 44 120 37 254 -39z m5922 -22
c74 -33 95 -38 160 -38 64 0 88 5 163 37 113 47 160 53 225 32 84 -28 166
-142 174 -241 l3 -40 -236 3 c-130 1 -386 2 -569 2 l-333 0 6 43 c9 68 41 129
91 180 55 55 89 67 171 63 44 -2 83 -13 145 -41z m-4930 -484 c55 -41 47 -126
-15 -155 -30 -14 -234 -16 -2009 -16 -2133 0 -2022 -3 -2060 51 -23 33 -20 73
8 106 l24 28 384 5 c210 3 1117 4 2013 2 1566 -2 1631 -3 1655 -21z m5093 19
l898 0 24 -25 c36 -35 35 -102 -1 -136 l-26 -24 -2018 0 -2018 0 -26 24 c-33
31 -41 72 -22 110 9 16 22 33 28 38 21 13 426 18 1368 16 492 -1 1299 -2 1793
-3z m-8463 -408 c0 -5 9 -80 20 -168 11 -87 20 -171 20 -186 l0 -28 -204 0
-205 0 -15 53 c-21 74 -76 307 -76 323 0 12 40 14 230 14 127 0 230 -4 230 -8z
m723 -34 c3 -24 5 -81 6 -128 1 -47 4 -115 7 -153 l7 -67 -244 2 -243 3 -7 40
c-10 54 -27 195 -35 278 l-6 67 254 0 255 0 6 -42z m1123 -95 c-4 -75 -9 -163
-13 -195 l-6 -58 -438 0 -439 0 0 28 c0 15 -5 99 -10 186 -5 88 -7 163 -4 168
3 4 210 8 461 8 l456 0 -7 -137z m714 125 c0 -7 -10 -95 -22 -195 l-22 -183
-239 0 -239 0 6 33 c3 17 8 105 12 195 l7 162 248 0 c193 0 249 -3 249 -12z
m645 -15 c-4 -16 -20 -91 -36 -168 -16 -77 -32 -152 -35 -167 l-6 -28 -204 0
-204 0 5 23 c6 29 33 225 41 305 l7 62 219 0 220 0 -7 -27z m2775 -14 c0 -41
26 -271 36 -321 l6 -28 -206 0 -206 0 -10 24 c-7 21 -90 351 -90 362 0 2 106
4 235 4 l235 0 0 -41z m714 29 c3 -7 7 -95 10 -195 l5 -183 -240 0 c-131 0
-239 3 -239 8 0 4 -7 52 -15 107 -7 55 -17 139 -21 188 l-7 87 252 0 c193 0
253 -3 255 -12z m1123 -115 c-4 -71 -7 -158 -7 -195 l0 -68 -443 0 -444 0 -6
107 c-4 58 -7 146 -7 195 l0 88 457 0 456 0 -6 -127z m716 120 c3 -5 -5 -91
-17 -193 l-21 -185 -239 -3 -239 -2 8 187 c4 104 9 191 12 196 2 4 114 7 248
7 134 0 246 -3 248 -7z m652 -15 c-7 -30 -54 -250 -66 -306 -5 -24 -11 -48
-14 -53 -4 -5 -93 -9 -206 -9 l-199 0 6 43 c3 23 10 67 14 97 5 30 12 89 15
130 3 41 8 85 11 98 l4 22 220 0 220 0 -5 -22z m-9073 -768 c21 -102 38 -191
38 -197 0 -10 -42 -13 -175 -13 -172 0 -176 0 -185 23 -21 48 -101 358 -95
367 4 7 76 9 193 8 l187 -3 37 -185z m633 178 c5 -13 45 -350 45 -375 0 -10
-49 -13 -210 -13 l-209 0 -10 38 c-26 91 -72 334 -67 347 4 13 41 15 226 15
167 0 222 -3 225 -12z m1065 -20 c0 -34 -26 -277 -35 -335 l-6 -33 -379 0
c-208 0 -381 3 -383 8 -9 14 -48 372 -42 382 4 6 164 10 426 10 l419 0 0 -32z
m666 -22 c-4 -29 -22 -118 -39 -197 l-32 -144 -207 -3 -208 -2 0 22 c0 29 30
325 36 356 l4 22 226 0 226 0 -6 -54z m604 39 c0 -17 -82 -313 -99 -358 l-11
-27 -176 0 -176 0 6 26 c15 60 47 224 56 288 6 37 13 72 16 77 3 5 90 9 195 9
162 0 189 -2 189 -15z m5967 7 c11 -7 -24 -162 -75 -329 l-18 -58 -178 -3
-179 -2 7 32 c4 18 18 96 32 173 14 77 28 150 30 162 4 22 9 23 142 26 75 1
157 4 182 5 25 1 50 -2 57 -6z m-2993 -24 c22 -103 66 -341 66 -353 0 -13 -26
-15 -174 -15 l-174 0 -21 63 c-23 72 -91 310 -91 320 0 4 88 7 195 7 194 0
195 0 199 -22z m670 -20 c21 -168 36 -298 36 -321 l0 -27 -209 0 -209 0 -21
88 c-28 116 -61 273 -61 289 0 10 48 13 229 13 l230 0 5 -42z m1059 35 c7 -12
-32 -366 -41 -375 -5 -5 -179 -7 -388 -6 l-379 3 -16 130 c-9 72 -19 158 -22
193 l-5 62 423 0 c233 0 426 -3 428 -7z m677 -4 c0 -19 -70 -360 -76 -370 -6
-11 -411 -12 -417 -1 -4 7 31 347 38 370 6 16 455 18 455 1z m-5282 -726 l-3
-258 -195 -2 -195 -3 84 78 c128 117 239 278 280 405 26 78 31 35 29 -220z
m-2927 32 c20 -55 50 -129 68 -164 18 -34 30 -66 26 -69 -8 -8 -108 42 -185
93 -67 45 -240 213 -240 234 0 8 41 11 147 9 l148 -3 36 -100z m567 93 c5 -7
13 -35 17 -63 6 -42 20 -95 82 -307 5 -17 -5 -18 -121 -18 l-127 0 -43 43
c-24 24 -62 76 -85 115 -50 83 -112 222 -105 234 9 14 370 10 382 -4z m922 2
c0 -39 -69 -284 -105 -372 -7 -16 -28 -18 -245 -18 l-238 0 -26 66 c-34 85
-86 269 -86 306 l0 28 350 0 c229 0 350 -3 350 -10z m600 -10 c0 -40 -120
-256 -176 -319 l-56 -61 -124 0 c-68 0 -124 3 -124 8 0 4 14 54 30 112 17 58
37 140 45 183 8 44 17 83 21 88 3 5 90 9 195 9 181 0 189 -1 189 -20z m530 11
c0 -6 -39 -51 -86 -100 -92 -97 -180 -161 -288 -212 -65 -30 -90 -33 -68 -7
21 26 90 175 112 243 12 39 25 73 27 78 6 11 303 9 303 -2z m3342 -76 c15 -44
46 -118 68 -164 22 -46 38 -86 35 -89 -14 -14 -194 90 -274 157 -57 48 -151
155 -151 172 0 6 56 8 147 7 l147 -3 28 -80z m582 68 c2 -10 10 -45 16 -78 7
-33 27 -113 46 -177 19 -64 34 -120 34 -123 0 -3 -55 -5 -123 -5 l-123 0 -41
43 c-22 23 -54 63 -72 89 -37 55 -107 200 -117 241 l-6 27 190 0 c173 0 191
-2 196 -17z m912 -35 c-6 -55 -74 -287 -95 -326 -12 -22 -14 -22 -250 -22
-218 0 -239 2 -246 18 -49 119 -111 343 -101 367 5 13 53 15 352 15 l347 0 -7
-52z m609 42 c8 -13 -64 -171 -112 -248 -18 -29 -52 -73 -74 -97 l-42 -45
-123 0 c-68 0 -124 3 -124 8 0 4 18 79 40 167 22 88 40 169 40 181 0 41 15 44
206 44 117 0 185 -4 189 -10z m535 1 c0 -21 -176 -193 -240 -236 -71 -47 -198
-111 -206 -103 -2 3 7 26 22 52 27 48 94 204 94 218 0 5 7 24 14 43 l15 35
150 0 c89 0 151 -4 151 -9z m-3153 -108 c21 -32 89 -109 151 -170 l113 -113
-155 0 -156 0 0 170 c0 94 2 170 4 170 3 0 22 -26 43 -57z m3711 -740 l3 -233
-341 0 c-370 0 -387 -2 -428 -55 -22 -27 -22 -32 -22 -431 0 -271 -3 -404 -10
-404 -11 0 -202 172 -565 510 -334 310 -402 369 -438 375 -18 3 -1504 4 -3303
3 l-3271 -3 -39 -30 c-21 -16 -163 -145 -314 -286 -151 -140 -327 -303 -390
-361 -63 -57 -140 -128 -171 -156 -31 -29 -62 -52 -68 -52 -8 0 -11 114 -11
403 0 381 -1 404 -20 434 -13 21 -31 35 -57 42 -23 7 -169 11 -375 11 l-338 0
0 228 c0 126 3 232 7 235 3 4 2288 6 5077 5 l5071 -3 3 -232z m-5215 -508 c-2
-27 -10 -205 -18 -395 -8 -190 -20 -430 -25 -535 -5 -104 -19 -372 -30 -595
-31 -609 -34 -651 -63 -714 -35 -77 -98 -140 -175 -178 -56 -28 -76 -32 -136
-32 -102 1 -173 31 -246 104 -39 39 -65 76 -81 116 l-24 59 -3 1113 -2 1112
402 -2 403 -3 -2 -50z m1239 -997 c2 -579 0 -1087 -3 -1129 -11 -132 -80 -229
-207 -291 -58 -29 -77 -33 -142 -33 -62 0 -86 6 -132 28 -101 50 -191 171
-203 278 -3 24 -14 215 -26 424 -11 209 -24 454 -29 545 -52 922 -67 1220 -61
1226 2 2 184 4 403 4 l398 0 2 -1052z m-1016 855 c-11 -11 -17 4 -9 23 7 18 8
18 11 1 2 -10 1 -21 -2 -24z"/>
<path d="M4387 9164 c-4 -4 -7 -51 -7 -104 0 -163 40 -269 136 -361 53 -49
175 -116 224 -121 21 -3 25 2 31 37 13 67 10 178 -6 238 -18 71 -68 151 -123
198 -73 62 -234 134 -255 113z"/>
<path d="M3953 8925 c-126 -49 -244 -148 -283 -241 -27 -62 -42 -162 -34 -229
7 -54 7 -55 39 -55 17 0 58 9 90 20 117 40 206 117 252 217 32 69 56 204 47
266 -7 56 -17 58 -111 22z"/>
<path d="M5596 8913 c-34 -112 -26 -266 20 -360 44 -91 186 -205 286 -229 24
-5 28 -2 35 23 4 15 8 84 8 153 0 117 -2 129 -28 182 -35 71 -120 157 -207
208 -72 43 -106 50 -114 23z"/>
<path d="M12260 8830 c-134 -23 -260 -111 -314 -218 -28 -56 -56 -155 -56
-201 l0 -31 68 0 c178 0 341 101 413 254 38 81 58 184 38 197 -17 10 -86 10
-149 -1z"/>
</g>
</svg>
