<?xml version="1.0" standalone="no"?>
<!DOCTYPE svg PUBLIC "-//W3C//DTD SVG 20010904//EN"
 "http://www.w3.org/TR/2001/REC-SVG-20010904/DTD/svg10.dtd">
<svg version="1.0" xmlns="http://www.w3.org/2000/svg"
 width="1536.000000pt" height="1536.000000pt" viewBox="0 0 1536.000000 1536.000000"
 preserveAspectRatio="xMidYMid meet">

<g transform="translate(0.000000,1536.000000) scale(0.100000,-0.100000)"
fill="#000000" stroke="none">
<path d="M8130 14399 c-25 -12 -99 -46 -165 -74 -295 -129 -614 -268 -653
-286 -78 -36 -295 -130 -447 -194 -82 -35 -208 -89 -280 -120 -278 -121 -831
-340 -1285 -510 -347 -129 -1178 -401 -1742 -570 -69 -21 -93 -33 -117 -61
-45 -50 -43 -104 3 -150 62 -62 78 -58 860 192 198 64 495 163 660 221 166 57
391 136 501 175 387 135 482 147 934 123 369 -21 923 -16 1126 9 304 37 580
83 618 103 33 16 61 75 53 109 -10 37 -53 81 -87 88 -18 3 -79 -3 -138 -14
-174 -33 -482 -68 -706 -81 -204 -11 -638 -7 -815 10 l-75 6 30 17 c17 8 102
45 190 81 518 211 1664 721 1687 750 26 33 32 79 15 120 -29 68 -95 90 -167
56z"/>
<path d="M6720 12905 c-218 -46 -411 -166 -537 -332 -67 -90 -136 -223 -156
-303 -9 -35 -20 -56 -31 -58 -9 -2 -16 1 -16 5 0 16 -79 116 -143 182 -77 79
-199 161 -239 161 -41 0 -85 -25 -103 -60 -34 -65 -14 -104 91 -180 96 -70
181 -166 226 -253 38 -76 74 -181 84 -242 l6 -46 -58 27 c-163 73 -287 99
-439 91 -130 -6 -202 -24 -310 -76 -145 -69 -240 -156 -339 -308 -178 -275
-200 -686 -60 -1112 150 -456 414 -789 705 -887 168 -57 281 -54 477 12 146
49 189 48 387 -7 l157 -44 116 -125 c326 -350 503 -515 743 -697 136 -102 459
-321 625 -422 49 -31 199 -123 332 -205 l242 -149 0 -3221 c0 -3528 -4 -3266
58 -3394 40 -83 147 -192 233 -237 209 -110 471 -67 628 101 70 74 116 162
135 259 9 41 23 259 35 530 12 253 23 496 26 540 2 44 8 155 11 248 4 92 11
170 15 173 5 3 9 -12 9 -33 0 -21 7 -155 15 -298 8 -143 19 -357 25 -475 30
-598 37 -670 65 -750 36 -99 85 -171 157 -231 68 -56 111 -80 184 -102 243
-72 515 37 628 252 71 135 66 -87 66 2819 0 1506 4 2622 9 2622 5 0 14 -20 20
-45 29 -115 222 -995 245 -1120 46 -240 56 -282 87 -344 41 -81 122 -161 206
-202 64 -32 73 -34 178 -34 103 0 114 2 178 32 128 61 212 175 244 330 14 70
14 89 -11 341 -94 948 -223 1764 -371 2352 -42 165 -63 231 -108 341 -152 367
-431 627 -803 748 -193 63 -194 63 -769 71 -569 9 -709 18 -975 66 -156 28
-413 95 -540 141 -185 66 -462 206 -635 320 -121 81 -505 374 -505 387 0 2 25
55 55 119 187 394 232 809 121 1135 -96 281 -294 477 -561 554 -67 19 -103 23
-220 22 -154 0 -216 -15 -389 -90 -43 -19 -81 -32 -84 -29 -5 5 -31 129 -32
151 0 8 51 13 163 17 195 5 276 24 422 97 126 63 210 130 279 223 98 130 153
262 184 438 19 114 12 161 -31 193 -26 19 -44 21 -185 23 -103 1 -179 -3 -222
-12z m206 -209 c8 -22 -14 -94 -57 -183 -97 -203 -304 -338 -536 -351 -93 -5
-93 -5 -93 19 1 37 52 159 94 221 49 75 150 168 228 211 76 42 182 76 275 86
37 5 72 9 76 10 4 0 10 -5 13 -13z m-1331 -1032 c33 -8 103 -33 155 -56 130
-56 180 -68 285 -68 113 1 150 9 282 66 146 62 216 77 333 71 147 -7 261 -58
373 -166 232 -222 280 -666 116 -1078 -44 -112 -91 -203 -104 -203 -7 0 -86
72 -178 159 -141 136 -177 165 -244 198 -75 37 -82 38 -183 38 -86 0 -115 -5
-163 -23 -195 -79 -324 -307 -287 -512 14 -79 66 -190 114 -247 20 -22 36 -45
36 -50 0 -5 -37 -10 -82 -10 -58 -1 -109 -9 -168 -27 -195 -60 -233 -68 -295
-61 -225 24 -416 204 -585 550 -112 229 -160 411 -167 640 -10 287 63 496 226
648 63 58 173 119 247 136 64 15 224 13 289 -5z m923 -1284 c24 -11 76 -53
115 -93 71 -73 259 -246 328 -303 20 -16 81 -68 135 -115 540 -466 1035 -729
1599 -850 358 -77 641 -102 1155 -101 422 1 538 -7 668 -44 125 -36 313 -132
399 -204 142 -118 259 -279 323 -444 155 -395 332 -1397 445 -2506 34 -329 34
-384 6 -443 -40 -82 -143 -131 -227 -108 -46 13 -109 62 -129 102 -9 16 -51
203 -95 417 -78 381 -129 616 -190 862 -17 69 -53 224 -80 345 -27 121 -67
294 -88 385 -22 91 -54 227 -72 302 -39 164 -60 197 -130 205 -54 5 -105 -22
-121 -64 -6 -18 -10 -1049 -9 -3117 0 -2031 -3 -3110 -10 -3145 -27 -141 -129
-243 -267 -266 -99 -16 -221 40 -280 129 -50 73 -62 130 -73 340 -6 105 -17
306 -25 446 -8 140 -17 302 -20 360 -3 58 -8 134 -10 170 -2 36 -7 110 -10
165 -3 55 -14 240 -25 410 -11 171 -26 438 -35 595 -8 157 -24 431 -35 610
-11 179 -23 373 -26 432 -8 129 -23 161 -85 179 -37 11 -45 11 -77 -7 -71 -38
-69 -28 -91 -459 -12 -214 -25 -471 -31 -570 -18 -331 -30 -548 -40 -755 -5
-113 -12 -243 -15 -290 -3 -47 -7 -143 -10 -215 -3 -71 -8 -155 -10 -185 -2
-30 -13 -251 -25 -490 -25 -539 -32 -625 -58 -683 -29 -65 -94 -131 -155 -158
-64 -28 -172 -31 -229 -6 -83 35 -152 112 -183 202 -15 47 -17 267 -17 3300
-1 2814 -3 3254 -15 3282 -12 25 -63 61 -261 184 -300 186 -764 482 -887 567
-302 209 -548 438 -950 882 -77 85 -183 202 -237 259 -120 127 -151 184 -151
279 -1 75 20 127 70 174 62 59 161 74 241 38z"/>
<path d="M9620 11375 c-405 -87 -708 -389 -790 -785 -19 -89 -21 -127 -17
-245 7 -199 45 -327 146 -500 55 -94 207 -254 296 -310 294 -186 645 -212 952
-70 334 154 552 483 570 860 26 516 -302 947 -799 1049 -94 19 -268 20 -358 1z
m367 -245 c453 -129 683 -619 498 -1062 -83 -198 -286 -379 -485 -433 -36 -9
-117 -19 -181 -22 -96 -4 -129 -2 -199 16 -474 120 -717 651 -500 1096 76 156
177 261 330 344 167 89 360 111 537 61z"/>
<path d="M5487 5470 c-258 -33 -553 -139 -749 -271 -531 -357 -855 -931 -927
-1644 l-17 -170 -59 -6 c-269 -27 -380 -329 -190 -516 35 -34 68 -56 97 -64
23 -7 48 -17 55 -23 6 -6 35 -103 63 -216 75 -298 195 -744 223 -825 61 -176
143 -305 282 -440 163 -159 344 -258 560 -306 97 -21 121 -22 834 -26 892 -6
998 1 1187 72 165 62 347 184 451 301 78 88 165 228 204 327 47 123 166 608
240 982 25 126 30 142 55 160 66 47 105 90 130 141 24 49 26 62 22 142 -3 56
-11 99 -22 120 -52 99 -165 172 -267 172 l-57 0 -7 93 c-23 301 -111 618 -249
897 -81 162 -139 255 -239 380 -301 377 -681 613 -1122 700 -123 24 -383 35
-498 20z m453 -245 c625 -110 1171 -667 1361 -1389 16 -61 29 -114 29 -118 0
-14 -21 -8 -48 12 -14 11 -56 30 -95 41 -59 19 -83 21 -171 15 l-101 -7 -65
41 c-210 131 -346 141 -492 38 -15 -11 -25 -4 -73 49 -103 114 -221 151 -391
123 -90 -14 -116 -7 -208 55 -91 61 -151 79 -245 73 -122 -8 -204 -56 -286
-168 l-35 -47 -52 9 c-75 14 -153 -4 -280 -64 l-108 -51 -82 9 c-155 16 -217
11 -291 -24 -77 -36 -144 -98 -174 -163 -27 -57 -46 -158 -41 -223 3 -49 2
-51 -24 -54 l-28 -3 0 80 c0 142 44 388 101 561 93 283 241 532 444 748 246
261 598 438 950 476 77 8 311 -3 405 -19z m-375 -1307 c139 -88 153 -93 250
-92 50 0 122 2 161 5 64 4 74 1 111 -23 99 -66 110 -216 27 -381 l-24 -47
-303 2 -302 3 -7 74 c-12 112 -45 205 -105 294 -29 43 -53 84 -53 92 0 24 70
94 104 104 44 14 84 5 141 -31z m-467 -197 c46 -24 94 -74 120 -126 23 -46 56
-191 47 -206 -4 -5 -195 -9 -479 -9 l-474 0 -6 23 c-11 42 -6 119 10 153 22
46 66 82 112 90 20 4 83 2 139 -5 120 -15 165 -6 308 58 104 47 163 53 223 22z
m1547 -25 c28 -13 85 -44 129 -69 89 -52 151 -65 237 -49 128 24 249 -54 249
-160 l0 -38 -461 0 -461 0 7 47 c9 62 47 165 76 208 26 39 108 85 148 85 15 0
49 -11 76 -24z m1060 -542 c50 -33 53 -106 5 -149 -22 -20 -38 -20 -1992 -23
-1765 -2 -1973 -1 -2002 13 -61 29 -74 99 -27 146 l29 29 1982 0 c1789 0 1983
-2 2005 -16z m-2605 -457 c0 -40 3 -127 7 -194 l6 -123 -241 0 -240 0 -6 28
c-7 40 -15 98 -22 177 -4 39 -10 95 -14 125 -4 30 -4 57 0 60 5 3 121 4 259 2
l251 -3 0 -72z m1106 -85 c-4 -86 -10 -174 -13 -194 l-6 -38 -432 0 -433 0 -6
83 c-16 228 -18 300 -8 306 6 3 211 5 457 3 l448 -2 -7 -158z m1354 155 c0 -1
-14 -65 -30 -142 -17 -77 -36 -164 -42 -192 l-11 -53 -198 0 c-109 0 -200 3
-202 8 -3 4 1 48 9 98 7 50 17 133 21 185 l8 94 45 5 c42 5 400 2 400 -3z
m-3176 -9 c2 -7 11 -89 21 -183 9 -93 18 -174 19 -180 1 -12 -394 -19 -406 -7
-4 4 -24 71 -43 147 -20 77 -42 161 -50 188 l-14 47 235 0 c179 0 235 -3 238
-12z m2525 -35 c0 -27 -8 -113 -17 -193 l-17 -145 -240 0 -240 0 2 45 c1 25 4
111 8 193 l7 147 249 0 249 0 -1 -47z m-2442 -603 c6 -30 23 -109 37 -175 15
-66 29 -130 32 -143 l6 -22 -183 2 -183 3 -52 180 c-29 99 -53 188 -54 198 0
16 14 17 193 15 l192 -3 12 -55z m657 18 c9 -71 36 -332 36 -346 0 -10 -45
-12 -207 -10 l-207 3 -14 55 c-26 102 -70 325 -65 333 2 4 105 7 228 7 l224 0
5 -42z m1050 33 c5 -8 -30 -356 -39 -378 -3 -10 -89 -13 -384 -13 l-379 0 -6
38 c-10 58 -36 304 -36 335 l0 27 419 0 c231 0 422 -4 425 -9z m666 -13 c0
-13 -18 -102 -38 -198 l-38 -175 -213 -3 -214 -2 6 42 c3 24 13 108 22 188 9
80 18 151 20 158 3 9 58 12 230 12 l225 0 0 -22z m590 14 c0 -12 -35 -148 -72
-279 l-31 -113 -180 0 -179 0 5 23 c2 12 19 96 36 187 18 91 34 171 36 178 3
9 51 12 195 12 104 0 190 -4 190 -8z m-2806 -687 c18 -49 52 -127 75 -172 22
-46 36 -83 30 -83 -31 0 -210 105 -287 169 -55 45 -153 161 -146 173 3 5 71 7
151 6 l145 -3 32 -90z m592 -16 c12 -59 34 -145 48 -192 14 -47 26 -90 26 -96
0 -7 -38 -11 -115 -11 l-115 0 -45 41 c-25 23 -66 73 -92 112 -48 73 -124 236
-116 250 2 4 90 6 195 5 l192 -3 22 -106z m884 94 c0 -25 -36 -173 -66 -270
-40 -133 -20 -124 -289 -121 l-230 3 -28 75 c-27 68 -86 287 -87 318 0 9 77
12 350 12 327 0 350 -1 350 -17z m604 9 c3 -4 -22 -62 -54 -128 -62 -126 -152
-248 -196 -264 -30 -12 -214 -13 -231 -2 -9 6 -6 27 12 86 13 43 34 127 45
185 12 58 23 112 25 119 3 9 52 12 199 12 107 0 197 -4 200 -8z m516 -3 c0
-22 -122 -149 -197 -205 -100 -76 -253 -155 -253 -131 0 2 24 50 53 108 29 57
61 131 71 164 10 33 21 63 23 68 7 12 303 9 303 -4z"/>
<path d="M5406 4743 c-25 -92 -11 -226 34 -319 51 -106 171 -205 294 -244 47
-15 52 -10 61 74 21 201 -78 377 -260 462 -94 43 -122 49 -129 27z"/>
<path d="M6191 4534 c-129 -35 -232 -117 -285 -229 -30 -65 -48 -133 -35 -140
21 -14 143 -17 200 -6 132 26 227 87 291 185 47 73 85 186 66 198 -21 13 -179
8 -237 -8z"/>
<path d="M4988 4520 c-159 -55 -272 -164 -312 -299 -16 -55 -21 -166 -10 -209
6 -21 11 -23 48 -17 22 3 78 24 123 46 127 61 213 170 242 307 20 96 11 192
-18 192 -9 -1 -42 -9 -73 -20z"/>
<path d="M6600 4488 c-6 -18 -14 -68 -17 -111 -14 -186 86 -347 267 -431 30
-14 60 -26 67 -26 19 0 35 99 32 195 -4 78 -9 100 -37 158 -50 101 -185 221
-273 242 -23 6 -28 2 -39 -27z"/>
</g>
</svg>
